<?xml version="1.0" encoding="UTF-8" standalone="no"?>
<!-- Created with Inkscape (http://www.inkscape.org/) -->

<svg
   width="1350.3811"
   height="220.94464"
   viewBox="0 0 357.28833 58.45827"
   version="1.1"
   id="svg1"
   xml:space="preserve"
   xmlns:inkscape="http://www.inkscape.org/namespaces/inkscape"
   xmlns:sodipodi="http://sodipodi.sourceforge.net/DTD/sodipodi-0.dtd"
   xmlns="http://www.w3.org/2000/svg"
   xmlns:svg="http://www.w3.org/2000/svg"><sodipodi:namedview
     id="namedview1"
     pagecolor="#ffffff"
     bordercolor="#000000"
     borderopacity="0.25"
     inkscape:showpageshadow="2"
     inkscape:pageopacity="0.0"
     inkscape:pagecheckerboard="0"
     inkscape:deskcolor="#d1d1d1"
     inkscape:document-units="mm" /><defs
     id="defs1" /><g
     inkscape:label="Réteg 1"
     inkscape:groupmode="layer"
     id="layer1"
     transform="translate(-113.89025,-218.25333)"><path
       id="path443609"
       style="fill:#000000;stroke-width:6.74586"
       d="m 301.33778,218.25437 c -0.35136,-0.0262 -0.49238,0.44549 -0.31833,1.42317 0.1797,1.00939 -0.12857,1.79334 -0.96377,2.45308 -0.67513,0.53325 -1.57773,1.52339 -2.00607,2.2009 -0.54284,0.85807 -0.92189,1.04117 -1.25109,0.60203 -0.53691,-0.71608 -3.15226,1.67638 -3.15226,2.88355 0,0.38795 -0.26176,0.70538 -0.58085,0.70538 -2.21812,0 -3.79071,7.498 -2.23862,10.69547 1.04709,2.15711 1.04665,2.1596 -0.71468,3.97909 -2.23771,2.31192 -3.25431,1.36256 -2.11926,-1.97921 0.91285,-2.68734 -0.57396,-7.71808 -2.53679,-8.58397 -1.54617,-0.68249 -1.54324,0.0449 0.007,1.66966 1.70724,1.78874 2.54953,4.57716 1.08211,3.58066 -0.57415,-0.38985 -1.07726,-1.08717 -1.11776,-1.54926 -0.0405,-0.46229 -0.28543,-0.14364 -0.54312,0.70849 -0.46898,1.54953 -0.46901,1.54982 -0.95808,-0.18655 -0.39524,-1.40361 -0.59868,-1.57484 -1.06144,-0.89297 -0.67654,0.9965 -1.6239,0.63447 -2.3797,-0.90951 -0.43309,-0.88525 -0.54911,-0.92666 -0.58291,-0.20567 -0.0218,0.49697 -0.33784,0.9033 -0.7028,0.9033 -0.36494,0 -0.45997,0.29113 -0.21239,0.64596 0.26246,0.37508 0.21185,0.46525 -0.11937,0.21497 -0.31362,-0.23676 -0.50033,-0.52742 -0.41393,-0.64544 0.31536,-0.43329 -2.41234,-2.30954 -2.95537,-2.03295 -0.30855,0.15717 -0.74025,0.0454 -0.96015,-0.24804 -0.21964,-0.29325 -0.61084,-0.42553 -0.8692,-0.29404 -0.25817,0.13155 -1.85649,-0.31223 -3.55172,-0.98547 -1.95697,-0.77769 -3.2278,-1.02991 -3.48144,-0.69195 -0.27374,0.36597 -0.52471,0.36527 -0.79995,-0.001 -0.53555,-0.7142 1.78623,-1.28291 3.45508,-0.84646 0.96954,0.25366 1.20071,0.17433 0.8506,-0.29249 -0.35558,-0.47415 0.0281,-0.57935 1.47278,-0.40463 1.07557,0.1302 2.053,-0.009 2.17506,-0.31161 0.15165,-0.37506 0.75027,-0.34961 1.89497,0.0801 1.16386,0.43441 1.67328,0.45305 1.67328,0.0605 0,-0.3319 0.65248,-0.21231 1.58389,0.29094 0.87115,0.47021 1.85682,0.71622 2.19004,0.54622 0.33339,-0.16986 0.93801,0.29215 1.34411,1.02629 0.53387,0.96547 0.87826,1.1525 1.24592,0.6749 0.6889,-0.89457 0.65462,-1.43506 -0.0915,-1.43506 -0.34066,0 -1.19507,-0.40666 -1.89859,-0.90382 -0.7036,-0.4969 -1.76468,-0.95424 -2.35696,-1.02164 -4.35169,-0.47626 -7.65587,-0.56205 -7.65587,-0.19844 0,0.23748 -0.70648,0.31972 -1.56993,0.18345 -0.86341,-0.13559 -1.92069,-0.0139 -2.34972,0.27079 -0.42877,0.28489 -1.69547,0.67877 -2.81534,0.87643 -1.881,0.33156 -2.90098,1.30948 -1.36529,1.30948 0.36921,0 1.09453,0.34828 1.61127,0.77463 0.52008,0.42592 0.72986,0.77463 0.47284,0.77463 -0.25701,0 0.14828,0.54002 0.90072,1.20044 0.75208,0.66015 1.17896,1.35591 0.94827,1.54616 -0.23078,0.19023 0.0924,0.81182 0.71778,1.38183 0.62492,0.5699 0.90407,1.03611 0.61805,1.03611 -0.28576,0 0.0961,0.54003 0.84853,1.20045 0.75249,0.66015 1.20036,1.33876 0.99529,1.5074 -0.20494,0.16898 0.28604,0.5951 1.09089,0.94723 0.80485,0.35213 1.83208,1.06831 2.28203,1.59112 0.45029,0.52319 1.35041,0.95084 1.99936,0.95084 0.64936,0 1.35416,0.23278 1.56734,0.51677 0.50351,0.67248 4.1496,0.66419 6.31176,-0.0134 2.75816,-0.86455 2.7584,-0.40175 10e-4,3.54397 -1.11954,1.60186 -2.14102,2.40967 -3.04685,2.40967 -0.4086,0 -0.84842,0.45103 -0.9772,1.00149 -0.12865,0.55079 -1.72282,2.52636 -3.54293,4.38991 -4.27505,4.37717 -10.96292,13.15458 -11.70058,15.35669 -1.23915,3.69814 -3.04069,4.64593 -6.92206,3.6375 -4.7691,-1.23902 -5.39548,-1.14389 -3.50366,0.53279 0.29857,0.26461 0.50639,0.53819 0.76739,0.80615 h 1.86294 c -0.7817,-0.51425 -1.35634,-0.9577 -1.23145,-1.0604 0.44888,-0.36997 2.13724,0.25592 3.41581,1.0604 h 4.88963 c 0.0466,-0.0953 0.11089,-0.14872 0.15399,-0.25063 0.80058,-1.89304 7.4403,-10.26344 9.07955,-11.44633 0.72315,-0.52155 0.8919,-0.78871 0.37517,-0.59376 -1.70333,0.64309 7.47158,-6.0545 10.80761,-7.88944 2.18364,-1.2011 3.33096,-2.19773 1.56631,-1.36064 -0.43106,0.20443 -0.56248,0.17096 -0.29197,-0.0739 0.27024,-0.24468 2.10259,-1.10245 4.0721,-1.90634 1.96979,-0.80397 3.07387,-1.34094 2.45257,-1.19321 -0.62089,0.14706 -0.97808,0.0664 -0.79323,-0.17984 0.18475,-0.24635 0.90487,-0.57112 1.5999,-0.72088 0.69536,-0.14977 1.10554,-0.0618 0.9126,0.19585 -0.4946,0.65968 -0.23286,0.60133 2.54197,-0.56482 1.35181,-0.56774 2.89177,-1.01239 3.42201,-0.99219 0.53015,0.0224 -0.25183,0.3953 -1.73788,0.82837 -1.48605,0.43302 -2.59018,0.88043 -2.45256,0.99374 0.13741,0.11327 1.91746,-0.25403 3.95531,-0.81597 3.72115,-1.02605 6.7924,-1.40235 4.33152,-0.53072 -0.88351,0.31294 -0.14427,0.4439 2.50631,0.4439 2.65051,0 3.3893,-0.13089 2.50579,-0.4439 -1.11927,-0.39661 -1.07283,-0.44627 0.4315,-0.48007 4.55033,-0.098 15.14438,2.75257 22.90919,6.16448 4.98154,2.18903 5.45633,2.18067 7.552,-0.13281 1.28556,-1.41899 2.00099,-1.05854 1.28054,0.64492 -0.36023,0.85166 -0.88981,1.42899 -1.17719,1.28261 -0.55733,-0.28394 -1.43632,0.62399 -1.63194,1.68517 -0.0651,0.35376 0.70229,1.1247 1.70532,1.71359 1.00305,0.58691 1.83041,0.88024 1.84381,0.64751 0.011,-0.23219 0.43406,0.0292 0.94,0.58032 0.50567,0.5552 0.91984,0.82247 0.91984,0.60255 0,-0.51282 3.66091,1.93941 8.45788,5.6658 2.07003,1.60593 2.98422,2.53925 2.03657,2.07378 -2.41953,-1.18923 -2.19861,-0.9097 1.81126,2.29288 3.23375,2.58251 4.0023,2.72288 1.53892,0.28061 -1.32322,-1.31186 3.0471,1.28213 6.19446,3.47937 h 5.17126 c -0.48118,-1.58126 -0.78639,-3.38289 -0.87799,-5.22965 0.003,0.86615 -0.0529,1.67328 -0.19688,2.3058 -0.75088,3.29912 -1.88933,-0.3137 -2.47892,-7.86722 -0.44644,-5.72042 -7.21655,-12.17624 -15.04146,-14.3428 -3.62637,-1.00426 -5.6275,-1.1575 -4.11758,-0.31522 0.72195,0.40273 0.5767,0.46498 -0.62683,0.26665 -2.55964,-0.42161 -4.01579,-0.46617 -5.0121,-0.15451 -1.6907,0.52883 -9.45648,0.87722 -9.10435,0.40772 l -5.2e-4,-0.001 c 0.18761,-0.25025 0.12758,-0.55227 -0.13281,-0.67231 -0.26107,-0.11761 -0.19226,-0.17129 0.15245,-0.11059 1.02172,0.17424 4.70526,-1.64574 4.21214,-2.08153 -0.24925,-0.22055 1.09734,-0.24731 2.99258,-0.0605 2.51965,0.24894 3.19405,0.19206 2.50631,-0.21135 -0.78354,-0.45937 -0.73124,-0.52786 0.31316,-0.41187 2.19591,0.24421 2.81663,-0.53666 2.87063,-3.60959 0.0511,-2.93904 0.051,-2.93926 0.98805,-1.16686 0.59898,1.12616 0.78892,2.42265 0.53123,3.55534 -0.33824,1.48504 -0.24184,1.73147 0.57826,1.47175 0.54142,-0.17066 0.98392,-0.10114 0.98392,0.15451 0,0.43795 2.06464,1.20692 3.44579,1.28312 2.58858,0.14303 11.59102,5.79731 11.59102,7.28018 0,1.42514 1.44375,3.39685 1.97869,2.70216 0.41218,-0.53532 0.51131,-0.53456 0.51831,0.003 0.007,0.49514 0.8416,0.58374 3.29851,0.3483 3.28933,-0.31509 3.28943,-0.31534 1.73323,0.72089 -0.85591,0.57341 -1.70138,0.84932 -1.87947,0.62063 -0.34175,-0.43922 -3.14296,0.23768 -3.14296,0.75913 0,0.16861 0.25291,0.17733 0.5612,0.0202 0.30862,-0.15718 0.72836,0.0735 0.93276,0.51263 0.23206,0.49715 0.1149,0.66797 -0.31212,0.4501 -0.37642,-0.19172 -0.25117,0.20304 0.27905,0.87695 0.85267,1.08436 1.47314,4.1572 1.55391,6.78512 -0.12988,-4.25404 0.78973,-8.46923 2.89388,-9.71827 2.55276,-1.51525 2.55286,-1.5149 -1.00976,-1.77664 -3.49454,-0.25668 -3.64982,-0.33807 -8.14472,-4.24418 -3.75569,-3.26364 -5.45861,-4.30837 -9.43818,-5.79293 -3.20711,-1.19637 -4.85552,-2.10133 -4.85552,-2.66392 0,-1.23018 -3.19619,-6.92051 -3.8871,-6.92051 -0.32044,0 -0.40249,0.46856 -0.1819,1.04128 1.18936,3.08893 -2.29656,6.40665 -7.33031,6.97735 -1.77706,0.20151 -5.7635,1.02109 -8.85889,1.82108 -5.20976,1.34654 -5.81883,1.40183 -8.19174,0.75086 -9.72906,-2.67015 -20.25876,-2.32603 -30.30616,0.99064 -5.6809,1.87533 -5.91771,1.49578 -1.50586,-2.41433 0.88128,-0.78137 1.36494,-1.42007 1.07487,-1.42007 -0.29021,0 -0.0601,-0.42556 0.51057,-0.94567 0.57065,-0.52011 0.82593,-1.13866 0.56689,-1.37408 -0.25904,-0.23535 -0.13682,-0.27046 0.2713,-0.0775 0.43571,0.2058 1.43676,-0.40006 2.42362,-1.46657 1.37513,-1.48578 2.09623,-1.8177 3.95687,-1.8247 1.25129,-0.005 2.69805,-0.25749 3.21479,-0.56172 0.75473,-0.44455 0.6623,-0.50308 -0.47026,-0.29869 -1.63385,0.29521 -1.88349,-0.41166 -0.3886,-1.10122 0.56166,-0.25898 0.89165,-0.79024 0.7338,-1.18081 -0.25695,-0.63541 3.62741,-2.53111 5.18625,-2.53111 0.98408,0 -0.14461,1.50478 -1.36891,1.82521 -0.66718,0.17451 -1.01471,0.56844 -0.77928,0.88212 0.26922,0.35955 0.0584,0.45046 -0.57568,0.25011 -0.71135,-0.22465 -0.9733,-0.0356 -0.9126,0.65319 0.0975,1.06759 3.58738,-0.12685 3.58738,-1.22783 0,-0.27147 0.4316,-0.88705 0.95911,-1.36736 0.5276,-0.48056 1.07162,-1.35531 1.20923,-1.94355 0.13749,-0.58851 0.51382,-1.49225 0.83561,-2.00763 0.73144,-1.17129 0.31788,-7.07312 -0.51212,-7.30653 -0.33662,-0.0946 -0.61236,-0.79841 -0.61236,-1.56373 0,-0.76538 -0.4935,-1.75778 -1.09658,-2.20503 -0.60308,-0.44746 -1.5768,-1.54472 -2.16369,-2.43861 -0.66609,-1.01441 -1.22736,-1.53853 -1.57871,-1.56477 z m 66.74476,52.74614 c 0.005,0.16275 0.0167,0.3184 0.0248,0.48111 -6.1e-4,-0.15799 -0.0198,-0.31908 -0.0248,-0.48111 z M 302.146,221.63298 c 0.24541,-0.0816 0.24839,0.78885 0.25683,3.10989 0.008,2.08972 -0.27834,3.86296 -0.65474,4.05453 -0.36705,0.18754 -0.51816,0.66617 -0.33332,1.0635 0.1855,0.39727 0.0336,0.72244 -0.33744,0.72244 -0.37097,0 -0.50583,0.36033 -0.30076,0.8015 0.20507,0.44044 0.12687,0.67573 -0.17467,0.52193 -0.30154,-0.15348 -0.68326,0.30497 -0.84852,1.01854 -0.41906,1.80488 0.16741,1.81535 2.35024,0.0403 1.03697,-0.84095 1.48536,-1.33721 1.00304,-1.10381 -0.73193,0.35429 -0.78852,-0.0367 -0.34261,-2.36523 0.29345,-1.53414 0.49525,-3.95105 0.45475,-5.37125 -0.0754,-2.4561 -0.0418,-2.51226 0.69298,-1.1498 0.42485,0.78785 0.96695,1.27223 1.20509,1.07591 0.23745,-0.19609 0.43254,0.61175 0.43254,1.79523 0,1.18349 0.25894,2.15181 0.57464,2.15181 0.31837,0 0.44995,0.87167 0.29817,1.93683 -0.15178,1.06518 -0.29037,2.28461 -0.31057,2.71095 -0.057,1.29648 -1.33956,3.08276 -1.97973,2.75694 -0.33122,-0.16865 -0.79305,-0.0526 -1.02578,0.25838 -0.29904,0.39869 -0.91058,0.35657 -2.07842,-0.14263 -0.91016,-0.38986 -1.86143,-0.555 -2.11305,-0.36948 -0.25093,0.1855 -0.27234,0.0714 -0.047,-0.25374 0.43403,-0.62572 -1.07595,-1.36231 -1.7141,-0.83612 -0.20575,0.16978 -0.37466,0.73444 -0.37466,1.25522 0,1.09148 -0.67453,1.21768 -1.75441,0.32763 -0.41318,-0.34067 -0.7519,-0.42876 -0.7519,-0.19534 0,0.23407 -0.40064,0.1513 -0.89038,-0.18397 -0.73598,-0.50391 -0.82977,-0.40291 -0.54105,0.5824 0.23408,0.79845 0.14183,1.02095 -0.28112,0.67489 l -5.2e-4,0.002 c -1.24441,-1.01856 -1.65527,-3.64442 -0.44028,-2.81326 0.97478,0.66709 1.02487,0.54251 0.6289,-1.58802 -0.27321,-1.47188 -0.21878,-2.05933 0.1509,-1.61747 0.43603,0.52179 0.69189,0.32913 1.02784,-0.77463 0.53817,-1.76931 2.62182,-3.56883 3.02927,-2.61638 0.14834,0.34667 0.72649,-0.25753 1.28571,-1.34307 0.5589,-1.08595 1.27084,-1.84421 1.58182,-1.68569 0.31106,0.15847 1.01549,-0.46424 1.56528,-1.38337 0.37512,-0.62671 0.60981,-1.01815 0.75706,-1.06712 z m -33.35559,11.16417 c 0.88552,0.12854 2.10725,0.52946 2.92799,1.09658 0.51687,0.35713 1.8528,0.94743 2.96829,1.31103 1.11584,0.36381 1.88273,0.85513 1.70532,1.09192 -0.17754,0.23678 0.25687,0.68659 0.96532,0.99891 0.70851,0.31275 1.14803,0.7554 0.97668,0.9834 -0.17113,0.22822 0.38494,0.67606 1.23559,0.99581 1.68011,0.63101 2.0038,1.39804 0.76377,1.81022 -0.43058,0.14368 -0.14847,0.28159 0.62684,0.30179 0.94826,0.0274 1.40922,0.36031 1.40922,1.01803 0,0.5377 0.49349,1.15037 1.09657,1.36219 0.94542,0.33189 0.88073,0.43877 -0.47026,0.77876 -2.28374,0.57344 -3.25946,0.56675 -2.81895,-0.0201 0.23415,-0.31233 -0.63263,-0.51677 -2.19314,-0.51677 -1.56409,0 -2.42755,-0.20409 -2.19212,-0.51779 0.21338,-0.2846 -0.33581,-0.74387 -1.2206,-1.02113 -0.88478,-0.27732 -1.53585,-0.7108 -1.44745,-0.96377 0.0887,-0.25269 -0.54357,-0.94724 -1.40508,-1.54357 -0.92626,-0.64112 -1.21757,-1.09423 -0.71366,-1.10123 0.51762,-0.0105 0.27145,-0.41591 -0.62683,-1.03249 -0.96667,-0.66393 -1.16988,-1.01951 -0.58705,-1.03301 0.62427,-0.012 0.45059,-0.40483 -0.57929,-1.30845 -0.80904,-0.71033 -1.2471,-1.29088 -0.97255,-1.29088 l 0.001,5.2e-4 c 0.27455,0 0.11217,-0.38753 -0.36071,-0.86041 -0.52371,-0.52405 0.0255,-0.66804 0.91106,-0.53951 z m 5.12062,0.88264 c 0.17202,0 0.31264,0.11604 0.31264,0.25838 0,0.14236 -0.14062,0.25838 -0.31264,0.25838 -0.17202,0 -0.31316,-0.11604 -0.31316,-0.25838 0,-0.14237 0.14114,-0.25838 0.31316,-0.25838 z m 20.0489,0.51676 c -0.17202,0 -0.31264,0.11606 -0.31264,0.25838 0,0.14237 0.14062,0.25839 0.31264,0.25839 0.17202,0 0.31316,-0.11671 0.31316,-0.25839 0,-0.14236 -0.14114,-0.25838 -0.31316,-0.25838 z m -83.17011,0.1571 c -0.30892,0.0667 -0.47181,0.43064 -0.47181,1.09709 0,1.32913 -0.0195,1.33428 -5.28805,1.33428 -4.09871,0 -6.2887,0.29732 -9.73636,1.3224 -4.44828,1.32301 -4.44804,1.32291 -9.54257,0.26097 -4.91496,-1.02545 -6.97869,-1.01326 -4.72375,0.0269 4.11564,1.89843 5.58167,4.77804 3.8716,7.60367 -2.40489,3.97358 -0.68613,9.67347 3.92276,13.00903 3.05263,2.20934 3.72245,0.92463 1.03146,-1.97818 -3.57495,-3.85639 -2.24761,-9.35924 2.93987,-12.18892 2.95408,-1.61171 4.1498,-1.69116 4.68137,-0.31057 0.53542,1.3906 1.44469,1.30185 2.28772,-0.22324 1.59977,-2.89451 7.27041,-2.79697 15.16549,0.26045 11.13977,4.31344 17.88342,18.01775 11.18743,22.73039 -1.29628,0.91218 -1.77172,1.46556 -1.07332,1.24902 1.19375,-0.37042 4.69894,-0.73925 4.69894,-0.49506 0,0.9198 -3.49647,1.78519 -5.05861,1.2516 -0.99595,-0.34005 -2.30903,-0.45053 -2.91817,-0.24546 -1.66159,0.5587 0.59841,1.2106 4.35219,1.2578 2.14449,0.0263 3.80642,2.91025 4.65398,6.39548 h 1.11673 c 0.007,-1.00021 0.0147,-2.02976 0.10904,-3.00705 0.62604,-6.47864 0.6472,-8.64203 0.0941,-9.65574 -0.46215,-0.84715 -1.67622,-6.22734 -1.91772,-8.49974 -0.0654,-0.61233 -0.29485,-1.02307 -0.51004,-0.91313 -0.21586,0.10969 -0.39171,-0.38784 -0.39171,-1.10587 0,-2.63992 -9.04549,-10.76749 -11.85251,-10.64948 -0.28684,0.012 -0.95813,-0.30428 -1.49241,-0.70228 -1.75297,-1.3074 -7.97762,-2.85584 -7.17424,-1.78439 0.53973,0.71968 -3.63472,0.65873 -5.60741,-0.0822 -1.89701,-0.71241 -5.94443,0.0963 -7.70496,1.53945 -0.60383,0.49493 -2.43685,1.77952 -4.07366,2.8546 -1.63682,1.07502 -2.97604,2.30125 -2.97604,2.7249 0,0.42361 -0.21847,0.65923 -0.48628,0.52297 -1.25837,-0.64094 -0.84007,6.45563 0.49196,8.34832 1.34357,1.90902 1.34363,1.90876 -0.41548,0.4868 -1.67546,-1.35449 -3.05075,-11.77766 -1.4459,-10.96006 0.24116,0.12285 1.44843,-0.58511 2.68252,-1.57303 1.23401,-0.98795 1.99211,-1.79627 1.68517,-1.79627 -0.30686,0 -0.73252,0.23275 -0.94568,0.51676 -0.6412,0.85558 -1.46892,0.58111 -1.16737,-0.38706 l 0.001,-0.003 c 0.20359,-0.65306 -0.63837,-1.36434 -3.03496,-2.5647 -3.58845,-1.79709 -3.54375,-2.0255 0.21343,-1.09761 1.33223,0.329 2.42207,0.89663 2.42207,1.26091 0,1.16447 1.16752,1.3086 2.95848,0.36587 1.69562,-0.89046 1.71645,-0.8887 0.80098,0.061 -0.51694,0.53617 0.37813,0.20914 1.98903,-0.72657 2.88844,-1.67998 10.07034,-3.01756 9.07748,-1.69343 -0.24332,0.32435 0.97347,0.61955 3.17552,0.76998 5.02741,0.34363 5.62361,0.13911 5.34231,-1.83142 -0.22336,-1.5626 -0.18702,-1.59394 0.74155,-0.64027 0.5369,0.5514 0.97617,1.19055 0.97617,1.42059 0,0.60395 2.34259,2.44526 2.71766,2.1363 0.5141,-0.42378 5.91171,2.38425 7.45226,3.87677 1.44671,1.40137 5.49321,2.25391 5.49321,1.15703 0,-0.30558 0.42573,-0.555 0.94516,-0.555 0.77172,0 0.80866,0.17999 0.20154,0.98133 -0.40894,0.53994 -1.11614,0.86371 -1.57148,0.71934 -1.16428,-0.36825 -1.05413,-0.005 0.84801,2.79983 2.4144,3.56051 3.96255,7.31929 3.96255,9.62008 0,1.56498 0.20436,1.93495 0.93999,1.70222 0.67,-0.21182 0.93948,0.0485 0.93948,0.90589 0,0.96742 0.27431,1.16025 1.4118,0.98082 2.45198,-0.38634 5.56184,0.86386 3.65094,1.46761 -0.98017,0.30892 -1.74407,0.28977 -2.16163,-0.0543 -2.26595,-1.86779 -3.44367,5.53207 -2.55643,13.06277 h 1.34255 c -0.0465,-0.51486 -0.14584,-0.98512 -0.17725,-1.51102 -0.54729,-9.16389 -0.40965,-9.64362 3.01791,-10.53062 3.9936,-1.03355 4.06949,-1.35726 0.60461,-2.58589 -3.99685,-1.41724 -4.73187,-2.116 -6.24199,-5.93246 -0.67438,-1.70426 -1.87502,-4.34153 -2.66806,-5.86062 -1.23915,-2.3732 -1.33895,-2.99654 -0.71158,-4.4266 1.17087,-2.66893 0.98067,-2.8802 -1.78439,-1.98489 -2.51438,0.81408 -2.51415,0.81434 -5.11028,-0.90538 -1.42783,-0.94582 -4.02046,-2.36152 -5.76089,-3.14606 -1.74042,-0.78454 -3.88118,-2.29456 -4.75733,-3.35535 -1.25169,-1.51554 -2.17284,-2.22991 -2.68769,-2.11873 z m 86.92647,2.42466 c 0.17202,0 0.31264,0.11606 0.31264,0.25838 0,0.14237 -0.14062,0.25838 -0.31264,0.25838 -0.17202,0 -0.31316,-0.11604 -0.31316,-0.25838 0,-0.14236 0.14114,-0.25838 0.31316,-0.25838 z m -17.66972,0.10852 c 0.11358,0.011 0.27051,0.0622 0.44287,0.14986 0.3447,0.17537 0.62683,0.43488 0.62683,0.57722 0,0.14233 -0.28213,0.11491 -0.62683,-0.0605 -0.34472,-0.1754 -0.62684,-0.43607 -0.62684,-0.57774 0,-0.0712 0.0704,-0.0999 0.18397,-0.0889 z m 127.31523,0.67076 c -0.19696,0.018 -0.31316,0.0967 -0.31316,0.24649 0,0.2585 0.29538,0.62045 0.65629,0.80461 0.77974,0.39726 0.10494,4.98456 -0.8046,5.46891 -0.85403,0.45467 -1.30447,8.55453 -0.49868,8.96535 0.35618,0.18133 0.64909,0.72272 0.65009,1.20302 0.004,1.23745 3.96686,4.64101 5.85907,5.03226 2.02599,0.41919 2.23698,1.31417 1.21026,5.13663 -1.50742,5.61235 -4.34314,10.86604 -5.45444,10.10585 -0.65543,-0.44852 -0.91106,-0.14046 -1.22474,1.47794 -0.0419,0.21623 -0.21082,0.47621 -0.30902,0.71262 h 1.97249 c 0.60429,-0.871 1.19723,-1.76098 2.27066,-3.51968 1.04022,-1.70422 1.90421,-2.79623 1.91771,-2.42724 0.0144,0.36914 -0.40189,1.35454 -0.92604,2.18953 -0.52416,0.83508 -0.919,1.65111 -0.8785,1.81436 0.0459,0.18338 -0.50491,0.97966 -1.23506,1.94303 h 1.27589 c 0.36202,-0.47826 0.74314,-1.06075 1.02371,-1.32447 0.5289,-0.4988 0.79003,-1.05123 0.57619,-1.22731 -0.21365,-0.17626 0.0485,-1.01783 0.58343,-1.87017 0.53454,-0.85226 1.04144,-2.91571 1.12654,-4.58525 0.085,-1.66946 0.37647,-3.20813 0.64699,-3.41995 0.26788,-0.21162 0.28505,0.19635 0.0341,0.90641 -0.44085,1.24756 -0.42425,1.25636 0.49764,0.25838 0.94907,-1.02727 0.96208,-1.02659 2.47065,0.14159 2.47074,1.91325 10.48825,2.74006 10.48825,1.08159 0,-0.2469 0.54728,-0.44855 1.21646,-0.44855 0.66886,0 1.39071,-0.23246 1.60456,-0.5178 0.21371,-0.28532 1.14671,-0.36834 2.07326,-0.18552 1.61852,0.31995 -0.0462,-2.13135 -1.91772,-2.8236 -0.25836,-0.0957 -0.47025,-0.50315 -0.47025,-0.90589 0,-0.40237 -0.22974,-0.73122 -0.50902,-0.73122 -0.27961,0 -1.06829,-0.4305 -1.75286,-0.95601 -3.16273,-2.42877 -9.2386,-1.5913 -11.32231,1.56063 -1.1362,1.71855 -1.13642,1.71883 -1.33273,0.061 -0.15481,-1.30949 0.20897,-1.96088 1.73219,-3.09903 3.67372,-2.74497 4.84843,-7.68659 2.79776,-11.76931 -1.01874,-2.02822 -4.13221,-5.42856 -4.70358,-5.13715 -0.31989,0.16285 -0.75506,-0.0755 -0.96687,-0.5302 -0.3912,-0.84034 -3.992,-2.65569 -3.992,-2.0128 0,0.19292 -0.49351,0.002 -1.09658,-0.42478 -1.06955,-0.75611 -2.38517,-1.2483 -2.97604,-1.19424 z m -125.30605,0.76998 c 0.17203,0 0.31316,0.11603 0.31316,0.25838 0,0.14236 -0.14113,0.25838 -0.31316,0.25838 -0.17202,0 -0.31264,-0.11605 -0.31264,-0.25838 0,-0.14238 0.14062,-0.25838 0.31264,-0.25838 z m 15.66054,0 c 0.17202,0 0.31264,0.11603 0.31264,0.25838 0,0.14236 -0.14062,0.25838 -0.31264,0.25838 -0.17202,0 -0.31316,-0.11605 -0.31316,-0.25838 0,-0.14237 0.14114,-0.25838 0.31316,-0.25838 z m -97.73668,5.1e-4 c -0.17202,0 -0.31264,0.11605 -0.31264,0.25839 0,0.14236 0.14062,0.25838 0.31264,0.25838 0.17203,0 0.31316,-0.11605 0.31316,-0.25838 0,-0.14238 -0.14113,-0.25839 -0.31316,-0.25839 z m 96.68042,0.0982 c 0.0477,0.0393 0.005,0.15313 -0.13385,0.33796 -0.24575,0.32785 -0.57168,0.59635 -0.72347,0.59635 h -5.1e-4 c -0.5224,0 -0.27469,-0.4566 0.44751,-0.82424 0.2243,-0.114 0.36259,-0.14937 0.41032,-0.11007 z m -82.58359,1.45107 c -0.45806,0 -0.64691,0.15461 -0.41755,0.34417 0.22962,0.18955 0.60558,0.18955 0.83561,0 0.23004,-0.18889 0.0419,-0.34417 -0.41755,-0.34417 z m 197.2138,0.38551 c 0.25174,0.03 0.61253,0.13029 1.08004,0.30902 0.8588,0.32838 1.56331,0.78439 1.56631,1.01441 0.003,0.23013 0.25581,0.29034 0.56275,0.13384 0.30686,-0.15631 1.02368,0.30233 1.59371,1.01906 0.56976,0.71662 1.30584,1.16585 1.63504,0.99788 0.3292,-0.16798 0.59893,0.0252 0.59893,0.42994 0,0.40454 0.52054,1.28991 1.156,1.96733 1.79743,1.91514 2.20073,4.55492 0.88522,5.79447 -0.60578,0.57078 -0.76852,0.87776 -0.36174,0.68213 1.16298,-0.55856 1.56907,0.52506 0.5209,1.38906 -0.51948,0.42782 -0.7846,1.12016 -0.58963,1.53841 0.19495,0.41845 0.005,0.93878 -0.42168,1.156 -0.5295,0.27024 -0.65755,0.14194 -0.40256,-0.40514 0.28657,-0.6159 0.0602,-0.73402 -0.97823,-0.51005 -1.32375,0.28527 -1.32874,0.2635 -0.26614,-1.07332 1.3767,-1.73179 1.36022,-1.88016 -0.16898,-1.55029 -1.55817,0.33595 -1.67028,-0.96686 -0.31316,-3.64422 0.51692,-1.01969 0.92041,-2.15186 0.90021,-2.51613 -0.0215,-0.36448 -0.33517,-0.0812 -0.69608,0.62891 -0.65645,1.29108 -0.65637,1.29111 -1.38545,-0.41755 -0.40097,-0.93969 -0.90567,-1.56286 -1.12086,-1.38544 -0.2156,0.17769 -0.71291,-0.47793 -1.10484,-1.45676 -0.39192,-0.97883 -1.26579,-2.19241 -1.942,-2.697 -1.27618,-0.95224 -1.50291,-1.49451 -0.74776,-1.40456 z m -1.6676,0.2589 c 0.0595,-0.0757 0.21649,-0.0468 0.47284,0.0837 0.86833,0.4424 2.95254,4.08462 3.42408,5.9831 0.17661,0.71014 0.5293,1.85341 0.78496,2.54041 0.40239,1.08231 0.3042,1.19864 -0.73277,0.87282 -0.96061,-0.30155 -1.04194,-0.24653 -0.41393,0.27492 1.11516,0.92594 0.96825,2.37309 -0.30024,2.95796 -1.01762,0.46944 -1.0118,0.56452 0.0972,1.57458 1.19338,1.08743 0.56194,1.55243 -0.69764,0.51418 -0.45535,-0.37379 -0.8111,-0.38505 -1.07487,-0.0336 -0.21654,0.28885 -0.10723,0.67199 0.24288,0.85008 1.25971,0.64156 0.6442,1.33616 -0.67024,0.75602 -0.71863,-0.31686 -1.15373,-0.70247 -0.96687,-0.85628 0.18686,-0.15407 -0.42282,-1.12325 -1.35495,-2.15335 -0.93187,-1.03008 -1.24591,-1.58477 -0.69815,-1.23197 0.54804,0.35014 1.17762,0.49287 1.39888,0.31006 0.22141,-0.18248 -0.0865,-0.62802 -0.6842,-0.9896 l -10e-4,-0.002 c -1.33986,-0.81045 -1.51049,-5.21361 -0.24288,-6.26163 0.46286,-0.38385 0.68484,-1.04043 0.48989,-1.45935 -0.19497,-0.41865 -0.0648,-0.76119 0.28939,-0.76119 0.35413,0 0.48152,-0.21668 0.28319,-0.48111 -0.19833,-0.26437 -0.0862,-0.6205 0.24908,-0.79117 0.33522,-0.17074 0.4329,-0.68998 0.21704,-1.15341 -0.13357,-0.28703 -0.17115,-0.46739 -0.11162,-0.54312 z m -207.44987,0.3886 c 0.45807,0 0.64759,0.15462 0.41755,0.34417 -0.22956,0.18956 -0.60507,0.18956 -0.83511,0 -0.23003,-0.18888 -0.0418,-0.34417 0.41756,-0.34417 z m -3.44579,1.0325 c 0.17202,0 0.31316,0.11605 0.31316,0.25838 0,0.14236 -0.14114,0.25787 -0.31316,0.25787 -0.17202,0 -0.31316,-0.11553 -0.31316,-0.25787 0,-0.14237 0.14114,-0.25838 0.31316,-0.25838 z m -0.19017,1.16427 c 0.0757,-0.0625 0.17987,-0.054 0.29455,0.0408 0.2299,0.18932 0.22963,0.49824 0,0.68782 -0.22936,0.18956 -0.41754,0.0348 -0.41754,-0.34365 0,-0.18892 0.0473,-0.32252 0.12299,-0.38499 z m 217.59758,0.90175 c -0.17202,0 -0.31316,0.11605 -0.31316,0.25839 0,0.14236 0.14114,0.25838 0.31316,0.25838 0.17201,0 0.31264,-0.11605 0.31264,-0.25838 0,-0.14237 -0.14063,-0.25839 -0.31264,-0.25839 z m -127.95808,1.67122 c 0.13328,-0.0348 0.21453,0.0217 0.31471,0.10439 0.19631,0.16184 -0.25507,0.83086 -1.00304,1.48724 -0.74805,0.6563 -1.35961,1.351 -1.35961,1.54461 0,0.19332 -1.40967,1.79338 -3.13263,3.55586 -1.72295,1.7625 -3.13314,3.45969 -3.13314,3.77134 0,0.31167 -1.12741,1.47442 -2.50579,2.58382 h -5.2e-4 c -2.97836,2.39755 -3.08256,2.28294 -0.60616,-0.66404 1.02287,-1.21724 1.85983,-2.35942 1.85983,-2.53886 0,-0.17917 0.43282,-0.69365 0.9617,-1.1436 0.52888,-0.44988 2.36663,-2.32868 4.08399,-4.17494 3.25283,-3.4969 4.1208,-4.42148 4.52066,-4.52582 z m 126.07809,0.91105 c 0.17202,0 0.31316,0.11672 0.31316,0.25839 0,0.14236 -0.14114,0.25786 -0.31316,0.25786 -0.17202,0 -0.31316,-0.11553 -0.31316,-0.25786 0,-0.14237 0.14114,-0.25839 0.31316,-0.25839 z m -228.87544,0.13125 c 0.0756,-0.0625 0.18005,-0.054 0.29507,0.0408 0.22921,0.1893 0.22893,0.49875 0,0.68833 -0.22936,0.18956 -0.41755,0.0343 -0.41755,-0.34417 0,-0.18891 0.0468,-0.32251 0.12248,-0.38499 z m 128.05317,4.0411 v 5.2e-4 c -0.66042,-0.0222 -1.03114,0.1 -0.82269,0.2713 0.20818,0.17143 0.74899,0.18938 1.20096,0.0403 0.49994,-0.16528 0.35163,-0.28523 -0.37827,-0.31213 z m 16.23725,0.47491 c 0.17203,0 0.31316,0.11605 0.31316,0.25838 0,0.14238 -0.14113,0.25838 -0.31316,0.25838 -0.172,0 -0.31316,-0.11604 -0.31316,-0.25838 0,-0.14236 0.14116,-0.25838 0.31316,-0.25838 z m -14.09681,5.1e-4 c -0.45807,0 -0.64759,0.1546 -0.41755,0.34417 0.22963,0.18955 0.60505,0.18955 0.83509,0 0.23003,-0.18889 0.0418,-0.34417 -0.41754,-0.34417 z m -9.53482,0.008 c -0.83935,0.0168 -1.12517,0.17189 -0.48163,0.5147 0.67208,0.3582 -0.008,0.5035 -2.38641,0.5085 -1.82934,0.005 -3.17678,0.20725 -2.99465,0.4501 0.1822,0.2448 -0.43584,0.34096 -1.37305,0.21756 -1.28122,-0.16799 -1.47872,-0.0943 -0.79685,0.29765 0.72174,0.41473 0.53003,0.59002 -0.93947,0.85783 -7.32006,1.33406 -14.58474,5.07034 -19.56729,10.06347 -1.84242,1.84627 -3.89606,3.90012 -4.56457,4.56458 -0.66851,0.66447 -1.06881,1.40398 -0.88936,1.64279 0.17943,0.23901 -0.004,0.603 -0.40721,0.80874 -0.45805,0.23342 -0.56607,0.14964 -0.2868,-0.22273 0.24555,-0.32786 0.14843,-0.59634 -0.21652,-0.59634 -1.54737,0 -0.28754,1.78185 1.60352,2.26756 2.52611,0.64908 3.88279,2.38022 1.86551,2.38022 -0.97389,0 -1.53502,-0.22064 -1.31309,-0.51677 0.22384,-0.29885 -0.37169,-0.51676 -1.41129,-0.51676 -1.50969,0 -2.70571,0.79329 -4.04006,2.7435 h 1.78697 c 1.28577,-1.04306 2.68919,-1.23466 5.07359,-1.03198 3.94074,0.33493 4.04188,0.0475 0.82114,-2.33577 -3.00771,-2.22567 -2.92443,-2.65989 1.4211,-7.42591 7.61195,-8.34844 30.35762,-15.50835 35.58336,-11.20086 1.40651,1.15934 -6.96955,5.99644 -9.34362,5.39605 -2.76707,-0.70001 -2.7465,-0.71656 -1.98024,1.57096 0.57786,1.72498 0.31503,2.38128 -3.61941,9.02891 -1.40131,2.36768 -2.30111,3.98969 -3.44734,5.9986 h 3.06751 c 0.58635,-0.75395 1.18108,-1.66943 1.51257,-2.49287 0.4571,-1.13612 1.23921,-2.47269 1.7384,-2.96985 0.49924,-0.49697 0.72595,-0.90382 0.50333,-0.90382 -0.22234,0 -0.001,-0.40668 0.49144,-0.90382 0.49285,-0.49704 2.60383,-2.82073 4.69067,-5.16402 2.62642,-2.94923 4.19174,-4.26072 5.08651,-4.26072 0.71087,0 1.1205,-0.22994 0.91002,-0.51057 -0.22388,-0.29815 0.0424,-0.37596 0.64079,-0.18707 0.81421,0.25755 0.34027,0.86342 -2.31665,2.95848 -3.44908,2.71973 -3.78238,3.11121 -7.33237,8.62169 -2.00987,3.1199 -2.77096,5.06372 -2.29702,5.81257 h 3.13831 c -4.26777,-5.85539 12.19032,-21.9976 20.50831,-18.98127 8.74559,3.17144 10.63656,4.98264 10.63656,10.18956 0,3.96082 -0.12823,3.97905 4.02094,-0.57413 1.46572,-1.60855 3.98123,-0.18583 16.58607,9.36584 h 1.92805 c -0.005,-0.0122 -0.094,-0.0798 -0.094,-0.0884 0,-0.0132 0.13354,0.092 0.14521,0.0884 h 1.78645 c -0.0574,-0.0522 -0.1379,-0.11916 -0.1912,-0.16795 -3.02343,-2.76782 -8.23828,-6.2224 -9.02012,-5.97483 -0.45103,0.14234 -1.01328,0.002 -1.25006,-0.31419 -0.28117,-0.37507 -0.12583,-0.43179 0.44959,-0.1633 0.48394,0.22571 -0.52962,-0.79056 -2.25258,-2.25826 -3.78503,-3.22431 -8.58423,-6.25543 -9.90378,-6.25543 -0.53042,0 -1.83582,-0.60472 -2.90112,-1.34359 -1.06531,-0.73901 -2.34682,-1.21377 -2.84737,-1.05523 -0.50082,0.15852 -1.10423,0.0305 -1.341,-0.28525 -0.28286,-0.37777 -0.12869,-0.43006 0.4501,-0.15348 0.49714,0.23535 0.66246,0.22206 0.37982,-0.0336 -0.27496,-0.24826 -1.12062,-0.48247 -1.87947,-0.52297 -0.75884,-0.0393 -2.64856,-0.5572 -4.19923,-1.15083 -2.50602,-0.95953 -6.6935,-2.13569 -10.33787,-2.9037 -0.68923,-0.14646 0.29791,-0.15767 2.19315,-0.0269 3.44598,0.23887 3.44591,0.23848 1.56631,-0.63046 -2.34345,-1.08335 -9.84451,-2.27503 -12.36255,-2.22467 z m 33.33543,0.63356 c 9.67729,0.24997 20.35921,6.29745 23.12107,14.59342 2.73282,8.20868 0.96508,9.28083 -6.31538,3.83078 -3.85545,-2.88614 -8.77358,-6.41262 -10.92956,-7.83674 -4.76932,-3.15023 -4.80274,-3.21443 -3.21221,-6.24302 1.37913,-2.62631 1.1381,-3.53634 -0.6165,-2.32803 -1.55459,1.07051 -4.36231,1.99526 -5.98516,1.96836 -1.71891,-0.027 -5.83747,-1.78911 -5.07411,-2.17093 2.67203,-1.33649 5.78609,-1.89717 9.01185,-1.81384 z m -184.10608,0.0387 c -0.43522,-0.0287 -0.66483,0.81019 -0.86248,2.50528 -0.34749,2.98066 -1.49975,4.04523 -4.3801,4.04523 -4.07212,0 -18.48026,3.0641 -21.94129,4.66638 -1.57252,0.72822 -10.43497,1.66944 -12.50467,1.32809 l 0.0108,0.0129 c -2.25263,-0.37088 -2.26925,0.42605 -0.0269,1.14981 3.7277,1.20304 7.29423,1.223 13.01936,0.0718 12.9882,-2.61159 17.83716,-1.94507 17.83716,2.45256 0,1.88883 0.87071,2.21425 1.85777,0.69401 0.8166,-1.25762 0.82445,-1.73446 0.0202,-1.32498 -0.37846,0.19273 -0.62684,-0.51117 -0.62684,-1.77715 0,-1.15293 0.28212,-2.09652 0.62684,-2.09652 0.3447,0 0.63249,0.75536 0.64595,1.67845 0.0199,1.67856 0.0199,1.67859 1.30535,0.25839 2.18936,-2.41879 10.94341,-1.64453 19.17557,1.69602 4.72429,1.91707 9.04446,5.53764 12.17445,9.43198 h 3.8008 c -1.27973,-1.99762 -3.04988,-3.77858 -3.89795,-3.77858 -0.34673,0 -0.63097,-0.32337 -0.63097,-0.71934 0,-0.70954 -1.70381,-1.59958 -2.70888,-1.41541 -0.28395,0.0526 -0.35757,-0.11664 -0.16329,-0.37569 0.19414,-0.25891 -0.12076,-0.78791 -0.70022,-1.17512 -0.72451,-0.48635 -0.9067,-0.50433 -0.58291,-0.0605 0.25905,0.35483 0.17167,0.64544 -0.19327,0.64544 -0.36495,0 -0.66353,-0.34829 -0.66353,-0.77463 0,-0.42626 -0.21189,-0.7937 -0.47025,-0.8139 -1.48368,-0.1248 -2.69809,-0.54771 -5.79551,-2.01796 -2.7117,-1.28968 -3.04542,-1.56899 -1.56632,-1.32344 1.8796,0.31214 1.8796,0.31207 0,-0.70331 -1.03381,-0.55849 -2.63022,-1.12774 -3.54758,-1.26401 -0.91745,-0.13653 -2.32705,-0.54097 -3.13263,-0.89917 -1.93046,-0.85741 -14.935,-1.33309 -14.935,-0.5457 0,0.35008 -0.68439,0.45709 -1.77716,0.27698 -1.1963,-0.19752 -2.11575,-0.0144 -2.81429,0.56173 -0.57064,0.47289 -1.32175,0.71003 -1.66915,0.5333 -0.34742,-0.17675 -0.63149,-0.0497 -0.63149,0.28215 0,0.38815 -0.81135,0.52506 -2.30684,0.38137 -1.26868,-0.1221 -3.42576,0.0957 -4.79402,0.48421 -1.73382,0.49244 -2.68713,0.54246 -3.14451,0.16536 -0.45743,-0.37709 -0.14337,-0.54105 1.0356,-0.54105 0.93039,0 1.69137,-0.23275 1.69137,-0.51676 0,-0.28467 0.54727,-0.51677 1.21646,-0.51677 0.66885,0 1.40203,-0.24834 1.62936,-0.5519 0.22748,-0.30145 0.8087,-0.42686 1.29036,-0.2744 0.48179,0.15245 0.87643,0.0902 0.87643,-0.1385 0,-0.60362 8.21709,-2.14424 11.05359,-2.07274 2.3864,0.0607 2.39305,0.0658 0.53692,0.46922 -1.4171,0.30631 -0.91712,0.3873 2.03243,0.3266 3.75575,-0.0787 4.80494,-0.43572 3.13676,-1.06712 -0.43099,-0.16285 -0.14763,-0.16594 0.62942,-0.007 1.87339,0.38323 2.3624,-0.75703 1.51102,-3.52175 -0.36902,-1.19152 -0.56037,-2.2542 -0.42943,-2.36213 0.51746,-0.42653 2.79559,4.02763 2.44481,4.78059 -0.26396,0.56706 0.004,0.8046 0.90847,0.8046 0.70574,0 1.43382,0.20093 1.61799,0.44649 0.1843,0.24575 1.31524,0.57738 2.51303,0.73794 8.29246,1.10916 23.54068,11.17485 23.54068,15.53962 0,0.45886 0.29857,0.83457 0.66352,0.83457 0.19321,0 0.30849,0.0669 0.35554,0.1664 h 1.10122 c -1.96022,-3.31655 -2.13854,-4.21151 -1.89032,-5.99602 0.34362,-2.47208 0.34391,-2.47205 -1.66553,-2.18333 -1.75892,0.2529 -2.59335,-0.099 -6.69003,-2.8205 -4.18925,-2.783 -12.20284,-6.2065 -14.54175,-6.2115 -2.06134,-0.005 -4.91415,-2.15339 -6.47919,-4.88032 -1.01893,-1.77528 -1.65975,-2.67192 -2.09497,-2.70062 z m 134.30705,0.35244 c 0.17202,0 0.31316,0.11605 0.31316,0.25838 0,0.14237 -0.14114,0.25838 -0.31316,0.25838 -0.17202,0 -0.31264,-0.11603 -0.31264,-0.25838 0,-0.14236 0.14062,-0.25838 0.31264,-0.25838 z m 66.40939,0 c -0.17202,0 -0.31265,0.11605 -0.31265,0.25838 0,0.14238 0.14063,0.25838 0.31265,0.25838 0.17201,0 0.31316,-0.11603 0.31316,-0.25838 0,-0.14236 -0.14115,-0.25838 -0.31316,-0.25838 z m 59.4682,0.0734 c 0.0849,0.12106 0.2128,0.60503 0.40101,1.47639 0.67259,3.11631 0.61406,5.55944 -0.0682,2.84066 h 10e-4 c -0.28534,-1.13621 -0.50346,-2.76315 -0.47646,-3.61529 0.0159,-0.58091 0.0577,-0.82282 0.14263,-0.70176 z m -57.71792,1.06867 c -0.11358,-0.0111 -0.18397,0.0172 -0.18397,0.0884 0,0.14233 0.28212,0.40236 0.62683,0.57775 0.34472,0.17535 0.62632,0.2028 0.62632,0.0605 0,-0.14233 -0.2816,-0.40185 -0.62632,-0.57723 -0.17235,-0.0877 -0.32928,-0.1383 -0.44286,-0.14934 z m -36.83548,0.40772 c -0.17203,0 -0.31316,0.11606 -0.31316,0.25839 0,0.14238 0.14113,0.25838 0.31316,0.25838 0.17202,0 0.31264,-0.11604 0.31264,-0.25838 0,-0.14236 -0.14062,-0.25839 -0.31264,-0.25839 z m -92.72457,1.0325 c 0.17202,0 0.31316,0.11604 0.31316,0.25838 0,0.14238 -0.14114,0.25838 -0.31316,0.25838 -0.17203,0 -0.31316,-0.11605 -0.31316,-0.25838 0,-0.14236 0.14113,-0.25838 0.31316,-0.25838 z m 127.18655,0 c 0.172,0 0.31316,0.11604 0.31316,0.25838 0,0.14237 -0.14116,0.25838 -0.31316,0.25838 -0.17203,0 -0.31264,-0.11603 -0.31264,-0.25838 0,-0.14236 0.14061,-0.25838 0.31264,-0.25838 z m -31.64303,5.2e-4 c -0.45806,0 -0.64691,0.1546 -0.41755,0.34416 0.22962,0.18956 0.60558,0.18956 0.83561,0 0.23004,-0.18888 0.0419,-0.34416 -0.41754,-0.34416 z m 88.03132,0.51624 c 0.17202,0 0.31264,0.11605 0.31264,0.25839 0,0.14236 -0.14062,0.25838 -0.31264,0.25838 -0.17201,0 -0.31316,-0.11605 -0.31316,-0.25838 0,-0.14237 0.14115,-0.25839 0.31316,-0.25839 z m -183.13869,0.64803 c 0.0756,-0.0625 0.17953,-0.0539 0.29455,0.0408 0.22989,0.18924 0.22962,0.49821 0,0.68781 -0.22937,0.18957 -0.41754,0.0343 -0.41754,-0.34416 0,-0.18892 0.0474,-0.322 0.12299,-0.38447 z m 188.7771,0.38499 c 0.17202,0 0.31316,0.11605 0.31316,0.25838 0,0.14236 -0.14114,0.25786 -0.31316,0.25786 -0.17202,0 -0.31316,-0.11552 -0.31316,-0.25786 0,-0.14236 0.14114,-0.25838 0.31316,-0.25838 z m -187.9601,1.03249 c 0.17202,0 0.31316,0.11605 0.31316,0.25838 0,0.14237 -0.14114,0.25839 -0.31316,0.25839 -0.17201,0 -0.31316,-0.11605 -0.31316,-0.25839 0,-0.14236 0.14115,-0.25838 0.31316,-0.25838 z m 85.20565,1.0325 c 0.17202,0 0.31316,0.11672 0.31316,0.25838 0,0.14238 -0.14114,0.25838 -0.31316,0.25838 -0.17202,0 -0.31316,-0.11604 -0.31316,-0.25838 0,-0.14236 0.14114,-0.25838 0.31316,-0.25838 z m -84.80567,5.1e-4 c 0.29681,0 0.5395,0.58133 0.5395,1.2914 0,0.71033 -0.10749,1.29087 -0.23978,1.29087 -0.13221,0 -0.37543,-0.58074 -0.54002,-1.29087 -0.1646,-0.71028 -0.0565,-1.2914 0.2403,-1.2914 z m 79.16674,0.51625 c 0.17202,0 0.31316,0.11671 0.31316,0.25838 0,0.14235 -0.14114,0.25838 -0.31316,0.25838 -0.17203,0 -0.31316,-0.11605 -0.31316,-0.25838 0,-0.14236 0.14113,-0.25838 0.31316,-0.25838 z m 51.37929,5.2e-4 c 0.17202,0 0.31265,0.11552 0.31265,0.25786 0,0.14236 -0.14063,0.25838 -0.31265,0.25838 -0.17201,0 -0.31316,-0.11605 -0.31316,-0.25838 0,-0.14236 0.14115,-0.25786 0.31316,-0.25786 z m 63.5801,0.54002 c 3.46452,0.13343 7.26209,2.13265 7.85637,4.6762 0.2593,1.11022 -0.63224,1.31812 -1.39061,0.32452 -0.87042,-1.14024 -3.55453,-1.80142 -6.78047,-1.66914 -1.71519,0.0701 -2.34337,0.0257 -1.39578,-0.0977 0.94766,-0.12364 1.72289,-0.46763 1.72289,-0.76378 0,-0.29611 -0.44557,-0.398 -0.99063,-0.22531 v -5.2e-4 c -1.76869,0.5595 -3.82939,-1.00765 -2.24431,-1.70687 0.94985,-0.41902 2.0677,-0.58191 3.22254,-0.53743 z m -266.26644,0.63355 c -1.55074,0 -2.18503,0.10103 -1.40973,0.22376 0.77536,0.1234 2.04409,0.1234 2.81946,0 0.7753,-0.12343 0.14094,-0.22376 -1.40973,-0.22376 z m 4.38526,0.37569 c -0.45807,0 -0.64689,0.1546 -0.41754,0.34416 0.22963,0.18956 0.60624,0.18956 0.8356,0 0.23004,-0.18888 0.0418,-0.34416 -0.41754,-0.34416 z m 139.94599,0.0289 c 0.28671,0.0731 0.98846,0.50492 1.8774,1.23765 1.29317,1.06591 1.39743,1.36271 0.65526,1.87068 -0.70293,0.48118 -0.88212,0.41554 -0.88212,-0.32246 0,-0.50951 -0.46711,-1.35127 -1.03714,-1.87069 -0.77155,-0.70292 -0.90012,-0.98834 -0.6134,-0.91518 z m 8.42481,0.0698 c -0.0477,-0.0392 -0.1863,-0.004 -0.4098,0.11007 -0.3973,0.20302 -0.72295,0.47098 -0.72295,0.59635 0,0.43091 0.55285,0.22772 0.99942,-0.36794 0.13829,-0.18484 0.18105,-0.29919 0.13333,-0.33848 z m 110.077,0.93379 c 0.17202,0 0.31316,0.11671 0.31316,0.25838 0,0.14236 -0.14114,0.25839 -0.31316,0.25839 -0.17202,0 -0.31316,-0.11606 -0.31316,-0.25839 0,-0.14237 0.14114,-0.25838 0.31316,-0.25838 z m -146.41535,0.0987 c 0.0477,0.0393 0.005,0.15313 -0.13385,0.33797 -0.24575,0.32785 -0.57168,0.59634 -0.72347,0.59634 l -5.1e-4,-5.1e-4 c -0.5224,0 -0.27468,-0.45607 0.44752,-0.82373 0.2243,-0.114 0.36258,-0.14936 0.41031,-0.11007 z m 62.77033,0.47749 c 0.98455,-0.0247 3.75894,1.65417 3.75894,2.2748 0,0.19628 -0.42275,0.22423 -0.93948,0.061 -0.69125,-0.21856 -0.94613,0.0741 -0.95963,1.10639 -0.0215,1.51788 -1.58167,3.61334 -2.2686,3.04736 -0.23204,-0.1911 -0.0937,-0.94037 0.30696,-1.66501 0.40023,-0.72432 0.72829,-1.98315 0.72864,-2.79828 v -5.2e-4 c -1.5e-4,-0.8149 -0.35245,-1.59852 -0.78341,-1.7415 -0.53096,-0.17674 -0.48024,-0.27082 0.15658,-0.28422 z m -198.92379,0.45734 c -0.17202,0 -0.31316,0.11604 -0.31316,0.25838 0,0.14236 0.14114,0.25838 0.31316,0.25838 0.17202,0 0.31265,-0.11605 0.31265,-0.25838 0,-0.14236 -0.14063,-0.25838 -0.31265,-0.25838 z m 10.02678,0.13022 c 1.37851,0.005 1.86868,0.11122 1.08934,0.23462 v 0.004 c -0.77935,0.1208 -1.90727,0.11603 -2.50631,-0.0134 -0.59902,-0.12954 0.0386,-0.2298 1.41697,-0.2248 z m 270.66256,0.38551 c 0.17202,0 0.31316,0.11672 0.31316,0.25838 0,0.14236 -0.14114,0.25839 -0.31316,0.25839 -0.17202,0 -0.31316,-0.11605 -0.31316,-0.25839 0,-0.14238 0.14114,-0.25838 0.31316,-0.25838 z m 7.99589,0.49506 c 0.58048,0.0667 1.53835,0.44821 2.42931,1.09399 1.46928,1.06489 1.46992,1.07075 0.0992,0.82992 -0.75877,-0.13357 -1.46857,-0.023 -1.57717,0.24547 -0.10861,0.26849 -1.68069,0.51604 -3.49384,0.54984 l 5.2e-4,-0.003 c -3.3052,0.0621 -5.33906,-0.66657 -3.90261,-1.39836 0.39633,-0.20175 1.26642,0.0406 1.93425,0.53847 0.66718,0.49784 1.21388,0.64997 1.21388,0.33899 0,-0.31111 -0.28211,-0.70982 -0.62683,-0.88521 -1.63931,-0.83513 -0.34315,-1.16254 1.95543,-0.49403 2.29062,0.66895 2.49424,0.66593 1.80299,-0.0207 -0.61869,-0.61455 -0.41563,-0.86255 0.16485,-0.79582 z m 32.13137,0.32763 c -0.15241,-0.0352 -0.4073,0.25549 -0.81132,0.73019 -4.40718,5.17811 -6.10661,5.88378 -15.46262,6.41873 -7.80731,0.44651 -16.51568,2.45898 -24.953,5.62291 h 5.34955 c 0.0121,-0.0266 0.13708,-0.0792 0.11524,-0.0971 -0.44064,-0.3632 2.98682,-2.13118 4.09329,-2.11098 0.51693,0.009 -0.019,0.35967 -1.19115,0.77928 -1.17202,0.41918 -2.01368,0.85918 -1.87068,0.9772 0.41899,0.34532 8.29459,-1.88768 9.15293,-2.59519 1.29508,-1.06753 6.97423,-1.89086 14.21515,-2.06086 6.83577,-0.16027 6.8358,-0.15997 8.1256,-1.86965 1.0361,-1.37386 1.07783,-1.57032 0.21239,-1.00097 -1.71215,1.12668 -1.24996,0.45555 0.76636,-1.11311 1.84324,-1.43404 1.84348,-1.43432 1.46503,0.51779 -0.20817,1.07367 -0.92396,2.27178 -1.59112,2.66237 -1.16509,0.68194 -1.1425,0.73424 0.57154,1.34204 2.48362,0.88034 6.33132,2.43122 8.62377,3.47576 1.06227,0.48394 2.23394,0.79763 2.60294,0.69711 0.2532,-0.069 0.61566,0.12307 0.96066,0.39636 h 2.03657 c -4.0774,-1.72591 -8.6117,-3.66132 -10.87117,-4.52789 -1.49957,-0.57508 -1.55968,-0.77541 -1.41128,-4.70049 0.0954,-2.52121 0.12535,-3.48471 -0.12868,-3.54345 z m -330.54003,0.26097 c 0.004,0.0385 -0.25961,0.18237 -0.78859,0.46198 -0.6138,0.32305 -1.60034,0.48468 -2.19263,0.35657 -0.97226,-0.20986 -0.97569,-0.23849 -0.0341,-0.29249 0.57482,-0.0324 1.56173,-0.19382 2.19315,-0.35708 0.54502,-0.14098 0.81774,-0.20752 0.82217,-0.16898 z m 142.74426,0.5643 c 0.0476,0.0393 0.005,0.15314 -0.13384,0.33797 -0.24568,0.32786 -0.57168,0.59634 -0.72347,0.59634 -0.5224,0 -0.27476,-0.4566 0.44752,-0.82424 0.22395,-0.11401 0.36215,-0.14936 0.40979,-0.11007 z m -100.16495,0.41806 v 5.2e-4 c -0.90153,0 -0.70301,0.36977 0.3824,0.71314 0.5558,0.17607 0.80887,0.0902 0.58963,-0.20258 -0.21047,-0.28062 -0.64757,-0.51108 -0.97203,-0.51108 z m 249.71293,0 c -0.17202,0 -0.31316,0.11673 -0.31316,0.25839 0,0.14236 0.14114,0.25838 0.31316,0.25838 0.17202,0 0.31316,-0.11605 0.31316,-0.25838 0,-0.14236 -0.14114,-0.25839 -0.31316,-0.25839 z m -150.80113,1.1312 c 0.0477,0.0393 0.005,0.15314 -0.13384,0.33797 -0.24575,0.32786 -0.57169,0.59634 -0.72347,0.59634 h -5.2e-4 c -0.52241,0 -0.27469,-0.45659 0.44752,-0.82424 0.2243,-0.11401 0.36258,-0.14936 0.41031,-0.11007 z m 94.41336,0.41806 c 0.17202,0 0.31316,0.11606 0.31316,0.25839 0,0.14237 -0.14114,0.25838 -0.31316,0.25838 -0.17202,0 -0.31265,-0.11604 -0.31265,-0.25838 0,-0.14237 0.14063,-0.25839 0.31265,-0.25839 z m 50.2853,5.2e-4 c 0.0716,0 0.0797,0.25821 0.0966,0.77463 0.0189,0.56808 -0.23865,1.38079 -0.57257,1.80713 -0.80492,1.02664 -0.80492,-0.26313 0,-1.80713 0.26946,-0.51642 0.40435,-0.77463 0.47594,-0.77463 z m -183.10717,0.4222 c 0.0357,0.0305 0.0744,0.1069 0.1142,0.23254 0.16195,0.50248 0.1512,1.20035 -0.0202,1.54978 l -0.004,-5.2e-4 c -0.17137,0.34964 -0.30237,-0.0615 -0.28887,-0.91364 0.01,-0.639 0.0912,-0.9598 0.19844,-0.86816 z m 113.39928,0.0935 c 0.17202,0 0.31316,0.11604 0.31316,0.25838 0,0.14238 -0.14114,0.25839 -0.31316,0.25839 -0.17201,0 -0.31264,-0.11605 -0.31264,-0.25839 0,-0.14237 0.14063,-0.25838 0.31264,-0.25838 z m -76.32299,0.69712 c 0.31787,0.262 -2.78479,5.50044 -3.25768,5.50044 -0.46984,0 -0.40878,-0.13837 1.33583,-3.02411 0.90118,-1.49063 1.76604,-2.60444 1.92185,-2.47633 z m -94.09452,0.33589 c 0.17202,0 0.31316,0.11605 0.31316,0.25839 0,0.14237 -0.14114,0.25838 -0.31316,0.25838 -0.17202,0 -0.31265,-0.11671 -0.31265,-0.25838 0,-0.14237 0.14063,-0.25839 0.31265,-0.25839 z m 6.8895,1.03302 c -0.17202,0 -0.31316,0.11605 -0.31316,0.25838 0,0.14236 0.14114,0.25838 0.31316,0.25838 0.17202,0 0.31316,-0.11604 0.31316,-0.25838 0,-0.14238 -0.14114,-0.25838 -0.31316,-0.25838 z m 166.66063,0 c 0.17202,0 0.31316,0.11603 0.31316,0.25838 0,0.14236 -0.14114,0.25838 -0.31316,0.25838 -0.17201,0 -0.31264,-0.11604 -0.31264,-0.25838 0,-0.14237 0.14063,-0.25838 0.31264,-0.25838 z m -162.58026,0.0486 c 0.47872,-0.0274 0.60795,0.41176 0.25683,1.16582 -0.21647,0.4648 -0.64617,0.71684 -0.95446,0.55966 -0.75878,-0.38654 -0.7072,-1.12199 0.10749,-1.53686 0.23239,-0.11836 0.43057,-0.17949 0.59014,-0.18862 z m 265.38381,2.57452 v 5.2e-4 c -0.66042,-0.0223 -1.03061,0.0999 -0.82217,0.2713 0.20818,0.1713 0.7483,0.18989 1.20096,0.0408 0.49986,-0.16528 0.35105,-0.28574 -0.37879,-0.31264 z m -15.40268,1.50844 c -0.45806,0 -0.64757,0.1546 -0.41754,0.34416 0.22962,0.18956 0.60557,0.18956 0.8356,0 0.23004,-0.18888 0.0419,-0.34416 -0.41754,-0.34416 z m -254.05892,0.51624 c 0.17202,0 0.31316,0.11605 0.31316,0.25839 0,0.14236 -0.14114,0.25838 -0.31316,0.25838 -0.17201,0 -0.31316,-0.11605 -0.31316,-0.25838 0,-0.14236 0.14115,-0.25839 0.31316,-0.25839 z m 265.0815,0.19741 c -0.5404,-0.0467 -1.89102,-0.0369 -4.17597,0.0191 -5.20159,0.12729 -11.25607,1.2487 -7.15925,1.3255 1.03994,0.0196 1.09332,0.10846 0.31316,0.524 -1.35503,0.72214 -2.66943,0.64232 -2.12235,-0.12868 0.25189,-0.35551 -0.0838,-0.27045 -0.74621,0.18759 -0.26189,0.18124 -0.85342,0.40707 -1.38131,0.62425 h 7.71684 c 2.11631,-0.24542 4.22606,-0.44493 6.19084,-0.52038 5.66111,-0.21721 9.36869,-0.10536 12.04836,0.52038 h 4.90306 c -2.45034,-1.48854 -6.89578,-2.16916 -13.13874,-1.96525 -4.27909,0.13964 -5.03448,0.0755 -3.13262,-0.2651 0.9547,-0.17136 1.2246,-0.27472 0.68419,-0.32143 z m -213.67171,0.12092 c -0.0936,-0.0765 -0.15968,0.57605 -0.15968,1.7477 0,0.3359 0.0231,0.43756 0.0331,0.68316 h 0.28371 c 0.0512,-0.71991 0.0506,-1.52475 -0.0558,-2.10323 -0.0359,-0.19528 -0.0701,-0.30211 -0.10129,-0.32763 z m 207.9749,0.19844 c 0.17202,0 0.31316,0.11552 0.31316,0.25786 0,0.14237 -0.14114,0.25839 -0.31316,0.25839 -0.17202,0 -0.31264,-0.11605 -0.31264,-0.25839 0,-0.14237 0.14062,-0.25786 0.31264,-0.25786 z m 24.43521,0 c 0.17202,0 0.31264,0.11552 0.31264,0.25786 0,0.14237 -0.14062,0.25839 -0.31264,0.25839 -0.17202,0 -0.31316,-0.11605 -0.31316,-0.25839 0,-0.14237 0.14114,-0.25786 0.31316,-0.25786 z m -12.21735,0.51625 c 0.45807,0 0.64759,0.1546 0.41755,0.34416 -0.22963,0.18957 -0.60506,0.18957 -0.83509,0 -0.23004,-0.18888 -0.0419,-0.34416 0.41754,-0.34416 z m -270.34939,0.51624 c 0.172,0 0.31264,0.11605 0.31264,0.25839 0,0.14238 -0.14064,0.25838 -0.31264,0.25838 -0.17203,0 -0.31316,-0.11604 -0.31316,-0.25838 0,-0.14237 0.14113,-0.25839 0.31316,-0.25839 z m 113.39928,0 c 0.17202,0 0.31316,0.11672 0.31316,0.25839 0,0.14236 -0.14046,0.25838 -0.31316,0.25838 -0.17202,0 -0.31264,-0.11605 -0.31264,-0.25838 0,-0.14238 0.14062,-0.25839 0.31264,-0.25839 z m 3.76205,0.51677 c -0.17202,0 -0.31316,0.11672 -0.31316,0.25838 0,0.14238 0.14114,0.25838 0.31316,0.25838 0.17202,0 0.31316,-0.11604 0.31316,-0.25838 0,-0.14236 -0.14114,-0.25838 -0.31316,-0.25838 z m 122.17445,0 c 0.17202,0 0.31316,0.11672 0.31316,0.25838 0,0.14238 -0.14114,0.25838 -0.31316,0.25838 -0.17203,0 -0.31316,-0.11605 -0.31316,-0.25838 0,-0.14236 0.14113,-0.25838 0.31316,-0.25838 z m 41.66413,0 c -0.45807,0 -0.64757,0.15459 -0.41755,0.34416 0.22963,0.18956 0.60558,0.18956 0.83561,0 0.23004,-0.18888 0.0419,-0.34416 -0.41755,-0.34416 z m -33.95142,0.0356 c -0.13981,-0.0506 -0.63539,0.037 -1.42317,0.28629 -0.34604,0.10961 -0.54715,0.23987 -0.65474,0.36122 h 1.07487 c 0.10144,-0.04 0.1893,-0.0541 0.29197,-0.10335 0.6351,-0.30458 0.85088,-0.49356 0.71107,-0.54416 z m 35.48414,0.524 c -0.22945,-0.0245 -0.28203,0.0233 -0.20257,0.12351 h 0.64802 c -0.0936,-0.0179 -0.37789,-0.11629 -0.44545,-0.12351 z"
       inkscape:export-filename="roseBodyNew.svg"
       inkscape:export-xdpi="58.928352"
       inkscape:export-ydpi="58.928352" /></g></svg>
